<svg xmlns="http://www.w3.org/2000/svg" version="1.1" xmlns:xlink="http://www.w3.org/1999/xlink" xmlns:svgjs="http://svgjs.dev/svgjs" viewBox="0 0 800 800"><defs><filter id="bbburst-blur-1" x="-100%" y="-100%" width="400%" height="400%"><feGaussianBlur in="SourceGraphic" stdDeviation="1"></feGaussianBlur></filter><filter id="bbburst-blur-2" x="-100%" y="-100%" width="400%" height="400%"><feGaussianBlur in="SourceGraphic" stdDeviation="2"></feGaussianBlur></filter><filter id="bbburst-blur-3" x="-100%" y="-100%" width="400%" height="400%"><feGaussianBlur in="SourceGraphic" stdDeviation="4"></feGaussianBlur></filter><filter id="bbburst-blur-4" x="-100%" y="-100%" width="400%" height="400%"><feGaussianBlur in="SourceGraphic" stdDeviation="12"></feGaussianBlur></filter><symbol id="bbburst-shape-6" viewBox="0 0 133 116"><path d="M59.7487 10.2513c-13.6683-13.66839-35.8291-13.66839-49.4974 0-13.66839 13.6683-13.66839 35.8291 0 49.4974l49.4974-49.4974ZM66.5 66.5 41.7513 91.2487 66.5 115.997l24.7487-24.7483L66.5 66.5Zm56.249-6.7513c13.668-13.6683 13.668-35.8291 0-49.4974-13.669-13.66839-35.8294-13.66839-49.4977 0l49.4977 49.4974Zm-112.4977 0 31.5 31.5 49.4974-49.4974-31.5-31.5-49.4974 49.4974Zm80.9974 31.5 31.5003-31.5-49.4977-49.4974-31.5 31.5 49.4974 49.4974Z"></path></symbol><symbol id="bbburst-shape-7" viewBox="0 0 139 124"><path fill-rule="evenodd" clip-rule="evenodd" d="M70.1641 15.0917C54.6093.764854 37.8293-2.10782 24.4032 2.82615 10.3804 7.97941.763366 21.4591 1.00047 37.0608c.1068 7.0273 2.86132 13.7317 7.0039 20.2001C12.1442 63.7249 17.853 70.2322 24.25 76.9024c3.8209 3.9842 7.8871 8.0312 12.0767 12.201h.0001c10.0335 9.9862 20.7748 20.6766 30.5497 32.8956 1.38 1.725 3.8972 2.005 5.6223.624.6706-.536 1.1228-1.244 1.3439-2.011 9.5768-11.748 20.0328-22.0735 29.8163-31.7351 4.19-4.1373 8.256-8.1528 12.078-12.1062 6.396-6.6176 12.106-13.0752 16.247-19.4911 4.144-6.4196 6.905-13.0811 7.012-20.0691.237-15.5124-9.399-28.8902-23.411-33.99923-13.32-4.85681-29.9542-2.08621-45.4209 11.88043Zm-3.7351 7.4919C52.1278 8.44857 37.6826 6.46918 27.1626 10.3352 16.2859 14.3323 8.8148 24.7824 8.99955 36.9392c.07575 4.9844 2.03755 10.2234 5.74165 16.0072 3.707 5.7881 8.9752 11.8418 15.2827 18.4187 3.5798 3.7328 7.4978 7.6329 11.6 11.7163 9.0476 9.0063 18.9911 18.9046 28.1786 29.8666 9.2999-11.068 19.4036-21.0473 28.5839-30.1144l.0007-.0006c4.1019-4.0508 8.0189-7.9196 11.5979-11.6222 6.307-6.5252 11.573-12.5298 15.278-18.2697 3.703-5.7362 5.658-10.924 5.734-15.8531.184-12.0276-7.267-22.3914-18.153-26.3608-10.71-3.90518-25.4722-1.80041-40.0023 12.867-1.5547 1.5694-4.0874 1.5813-5.6568.0265-.3146-.3116-.5666-.6625-.7559-1.0371Z"></path></symbol></defs><use xlink:href="#bbburst-shape-6" width="27.057991214040005" opacity="0.5423884003357108" transform="matrix(0.9984888388081645,-0.05495487945144769,0.05495487945144769,0.9984888388081645,266.96850252372604,182.70685695987044)" fill="#00a19d" filter="url(#bbburst-blur-2)"></use><use xlink:href="#bbburst-shape-6" width="28.776989246887055" opacity="0.45912895798798836" transform="matrix(0.9886241980692743,-0.15040676511342296,0.15040676511342296,0.9886241980692743,389.41471058416835,-228.16589460583918)" fill="red" filter="url(#bbburst-blur-2)"></use><use xlink:href="#bbburst-shape-7" width="35.568985684604954" opacity="0.2643077654868645" transform="matrix(1.189847910973996,-0.3830952215191647,0.3830952215191647,1.189847910973996,123.41528952420984,-384.03824241282416)" fill="#00a19d" filter="url(#bbburst-blur-3)"></use><use xlink:href="#bbburst-shape-7" width="28.68935595742365" opacity="0.5791237589885669" transform="matrix(0.9810770010077033,0.19361796944945686,-0.19361796944945686,0.9810770010077033,454.1570430597184,193.93732171245898)" fill="#2c2891" filter="url(#bbburst-blur-1)"></use><use xlink:href="#bbburst-shape-7" width="16.918322026507084" opacity="0.8038721516771782" transform="matrix(0.984239759785481,-0.17683917907923802,0.17683917907923802,0.984239759785481,330.50712696450296,95.53589068463862)" fill="#2c2891"></use><use xlink:href="#bbburst-shape-7" width="12.143721446969877" opacity="0.8864460942789683" transform="matrix(0.9471774804763644,0.3207098696305529,-0.3207098696305529,0.9471774804763644,517.8796486827462,70.05454990491563)" fill="red"></use><use xlink:href="#bbburst-shape-6" width="19.724320034418803" opacity="0.6508080857622774" transform="matrix(0.9837329150343618,0.17963727864226056,-0.17963727864226056,0.9837329150343618,528.7330474586348,-137.59851628596164)" fill="#ffbd9b" filter="url(#bbburst-blur-1)"></use><use xlink:href="#bbburst-shape-6" width="36.62933214861153" opacity="0.31397988015329736" transform="matrix(1.2113835546860172,-0.3083016111477021,0.3083016111477021,1.2113835546860172,-26.153753499930588,49.69540149461102)" fill="#ffbd9b" filter="url(#bbburst-blur-3)"></use><use xlink:href="#bbburst-shape-6" width="45.8318435122285" opacity="0.20099560814983608" transform="matrix(1.243716930681083,-0.12517266609458458,0.12517266609458458,1.243716930681083,225.02011373018573,251.76754263690276)" fill="#ff5c58" filter="url(#bbburst-blur-3)"></use><use xlink:href="#bbburst-shape-7" width="31.92567969192139" opacity="-0.08274849949051921" transform="matrix(1.64821976289517,0.5881085046161035,-0.5881085046161035,1.64821976289517,249.23360538151456,-597.6178315114207)" fill="#ffbd9b" filter="url(#bbburst-blur-4)"></use><use xlink:href="#bbburst-shape-7" width="36.100859921236" opacity="0.31392334368969854" transform="matrix(1.0800073699573423,-0.6293521119673983,0.6293521119673983,1.0800073699573423,378.8750616964404,160.22406173713284)" fill="#2c2891" filter="url(#bbburst-blur-3)"></use><use xlink:href="#bbburst-shape-7" width="29.62014442710176" opacity="0.4376561411136849" transform="matrix(0.7667188370080394,0.6419830410353838,-0.6419830410353838,0.7667188370080394,879.370374082392,180.04734742877946)" fill="red" filter="url(#bbburst-blur-2)"></use><use xlink:href="#bbburst-shape-7" width="26.19428153185793" opacity="0.6855157815870435" transform="matrix(0.9536868574819237,-0.3008012265039038,0.3008012265039038,0.9536868574819237,361.2577780278507,128.13064907087545)" fill="#ffa6d5" filter="url(#bbburst-blur-1)"></use><use xlink:href="#bbburst-shape-6" width="35.0461779621029" opacity="0.13763598309589142" transform="matrix(1.244686575090451,0.1151317931311887,-0.1151317931311887,1.244686575090451,781.403152573527,51.86267774862063)" fill="#00a19d" filter="url(#bbburst-blur-3)"></use><use xlink:href="#bbburst-shape-6" width="28.99140948775157" opacity="0.531719534823722" transform="matrix(0.9269224663429959,0.3752529032380931,-0.3752529032380931,0.9269224663429959,397.8215330593241,-134.7267722486608)" fill="#ffbd9b" filter="url(#bbburst-blur-2)"></use><use xlink:href="#bbburst-shape-7" width="42.29758503956718" opacity="0.1688693455603305" transform="matrix(0.9470489121955717,-0.8158421157976486,0.8158421157976486,0.9470489121955717,-189.6219128645409,322.7709717854045)" fill="#ffbd9b" filter="url(#bbburst-blur-3)"></use><use xlink:href="#bbburst-shape-6" width="18.82399718292841" opacity="0.6800392174357138" transform="matrix(0.787004322368148,-0.6169474828329006,0.6169474828329006,0.787004322368148,125.01440696943496,-51.4669563175521)" fill="#00a19d" filter="url(#bbburst-blur-1)"></use><use xlink:href="#bbburst-shape-6" width="46.8781274626624" opacity="0.1676797795731778" transform="matrix(1.2148558364800737,-0.29432175687553286,0.29432175687553286,1.2148558364800737,-20.939785202484458,-333.60802225523224)" fill="#00a19d" filter="url(#bbburst-blur-3)"></use><use xlink:href="#bbburst-shape-7" width="47.902025819603764" opacity="0.06556891805986542" transform="matrix(1.46909179335169,0.9509307559999913,-0.9509307559999913,1.46909179335169,1086.0973828256726,35.23207220021493)" fill="red" filter="url(#bbburst-blur-4)"></use><use xlink:href="#bbburst-shape-7" width="15.47459495995391" opacity="0.8493246864994539" transform="matrix(0.8477998176105526,0.5303163859994464,-0.5303163859994464,0.8477998176105526,563.3540725529949,3.6471036665523684)" fill="#00a19d"></use><use xlink:href="#bbburst-shape-7" width="18.68000434808801" opacity="0.6973901515030336" transform="matrix(0.877821119305889,0.47898860372722457,-0.47898860372722457,0.877821119305889,623.4574340401977,174.49152736483563)" fill="#ff5c58" filter="url(#bbburst-blur-1)"></use><use xlink:href="#bbburst-shape-7" width="44.50006717054919" opacity="0.007886586164922882" transform="matrix(1.5011143169274959,-0.8995308819130654,0.8995308819130654,1.5011143169274959,-265.09384845777464,-534.62058391079)" fill="#2c2891" filter="url(#bbburst-blur-4)"></use><use xlink:href="#bbburst-shape-7" width="12.159223387954478" opacity="0.9123441939310147" transform="matrix(0.9364701880953952,0.3507471836074741,-0.3507471836074741,0.9364701880953952,562.3810980812981,51.229084334014374)" fill="#00a19d"></use><use xlink:href="#bbburst-shape-6" width="16.428474785020992" opacity="0.7445327785838447" transform="matrix(0.9513979782116888,-0.30796410026935106,0.30796410026935106,0.9513979782116888,285.53996085284064,-91.79341500173456)" fill="#ffa6d5" filter="url(#bbburst-blur-1)"></use><use xlink:href="#bbburst-shape-7" width="32.024139829064296" opacity="0.2912155611118411" transform="matrix(1.0941498346233982,0.604430425602145,-0.604430425602145,1.0941498346233982,885.8295859075913,-229.75419309503263)" fill="#ffbd9b" filter="url(#bbburst-blur-3)"></use><use xlink:href="#bbburst-shape-6" width="29.244688007379054" opacity="0.5141657970725788" transform="matrix(0.9620526847147693,-0.2728637605712868,0.2728637605712868,0.9620526847147693,257.1250810637524,-198.57028687267535)" fill="#ffa6d5" filter="url(#bbburst-blur-2)"></use><use xlink:href="#bbburst-shape-6" width="43.85119290007644" opacity="0.1949972698045317" transform="matrix(0.9413632003656512,-0.8223960876593096,0.8223960876593096,0.9413632003656512,282.7831463606248,319.3805029233098)" fill="#2c2891" filter="url(#bbburst-blur-3)"></use><use xlink:href="#bbburst-shape-7" width="25.123928204871206" opacity="0.6873569483424259" transform="matrix(0.8836535634752364,-0.4681414100007778,0.4681414100007778,0.8836535634752364,136.33251159621219,177.10942622074253)" fill="#00a19d" filter="url(#bbburst-blur-1)"></use><use xlink:href="#bbburst-shape-6" width="31.99234627534251" opacity="0.3957994399730136" transform="matrix(0.9518805653963036,0.3064692304633751,-0.3064692304633751,0.9518805653963036,239.2721958275826,-30.96004653775111)" fill="#2c2891" filter="url(#bbburst-blur-2)"></use><use xlink:href="#bbburst-shape-6" width="20.479075874031665" opacity="0.784068340618356" transform="matrix(0.9982275082347531,-0.05951337499617958,0.05951337499617958,0.9982275082347531,288.9701829707285,60.58401951824874)" fill="#ffbd9b"></use><use xlink:href="#bbburst-shape-6" width="24.11549838339719" opacity="0.6037817994926982" transform="matrix(0.9968446853942885,0.07937677998736083,-0.07937677998736083,0.9968446853942885,445.1631707286729,-176.16977089763301)" fill="#2c2891" filter="url(#bbburst-blur-1)"></use><use xlink:href="#bbburst-shape-7" width="23.985187804283083" opacity="0.4250039104386073" transform="matrix(0.9657347621465305,-0.2595310562953577,0.2595310562953577,0.9657347621465305,519.7187100919352,-91.02134747020989)" fill="#ff5c58" filter="url(#bbburst-blur-2)"></use><use xlink:href="#bbburst-shape-7" width="45.79987973323419" opacity="0.0900565490405345" transform="matrix(1.7097933863995762,-0.372969939571904,0.372969939571904,1.7097933863995762,-148.27881054335046,-471.0985798872575)" fill="#ffa6d5" filter="url(#bbburst-blur-4)"></use><use xlink:href="#bbburst-shape-6" width="31.6156517691468" opacity="0.1485975868826358" transform="matrix(1.0973441533991994,0.5986115677136504,-0.5986115677136504,1.0973441533991994,892.7240796188469,-319.6025947825476)" fill="red" filter="url(#bbburst-blur-3)"></use><use xlink:href="#bbburst-shape-7" width="15.682571705159287" opacity="0.9344496987626459" transform="matrix(0.8664007100473181,0.4993493863313571,-0.4993493863313571,0.8664007100473181,567.071584549464,35.24355703538981)" fill="#00a19d"></use><use xlink:href="#bbburst-shape-6" width="47.62851008104805" opacity="0.07626967731523604" transform="matrix(1.7209497654420873,-0.31754039872876727,0.31754039872876727,1.7209497654420873,-113.4688452914655,-49.647353258826456)" fill="#00a19d" filter="url(#bbburst-blur-4)"></use><use xlink:href="#bbburst-shape-7" width="13.162565523074587" opacity="0.9785822845451779" transform="matrix(0.8112761527684108,-0.5846631542600288,0.5846631542600288,0.8112761527684108,168.50014926977653,73.62575753165106)" fill="#00a19d"></use><use xlink:href="#bbburst-shape-7" width="14.02201382012464" opacity="0.8445921267306775" transform="matrix(0.7584194655724941,0.6517667636821722,-0.6517667636821722,0.7584194655724941,692.1254316293553,32.54039834189274)" fill="#ffa6d5"></use><use xlink:href="#bbburst-shape-7" width="27.234946301222244" opacity="0.4773426849620207" transform="matrix(0.9863966954194914,-0.16438235691675435,0.16438235691675435,0.9863966954194914,552.4914256966443,-32.28443897545537)" fill="#ff5c58" filter="url(#bbburst-blur-2)"></use><use xlink:href="#bbburst-shape-7" width="40.54300850873687" opacity="0.0855877571771071" transform="matrix(1.7468022774589924,0.10574404694391844,-0.10574404694391844,1.7468022774589924,206.07521574975112,58.396300790747546)" fill="#2c2891" filter="url(#bbburst-blur-4)"></use><use xlink:href="#bbburst-shape-7" width="42.09663354702818" opacity="0.1844043835442375" transform="matrix(0.9987655989466528,-0.7516430524928264,0.7516430524928264,0.9987655989466528,-283.2223935941412,-47.65997025035574)" fill="#00a19d" filter="url(#bbburst-blur-3)"></use><use xlink:href="#bbburst-shape-7" width="31.359954019674838" opacity="0.19057768756777083" transform="matrix(1.1657607842592008,-0.4511117310416269,0.4511117310416269,1.1657607842592008,565.205732984058,-70.4747196731629)" fill="#ff5c58" filter="url(#bbburst-blur-3)"></use><use xlink:href="#bbburst-shape-6" width="30.260326855717754" opacity="0.4063728967907484" transform="matrix(0.9622037252316692,0.27233066509355597,-0.27233066509355597,0.9622037252316692,453.45584372976583,274.97822394716786)" fill="#ffbd9b" filter="url(#bbburst-blur-2)"></use><use xlink:href="#bbburst-shape-6" width="31.51300321850115" opacity="0.24370702659457255" transform="matrix(1.1509211637284364,-0.4877299200192475,0.4877299200192475,1.1509211637284364,518.0294778717807,25.389806035190986)" fill="#2c2891" filter="url(#bbburst-blur-3)"></use><use xlink:href="#bbburst-shape-7" width="25.824001057010342" opacity="0.6497960086627572" transform="matrix(0.9416008894416315,-0.3367309979831504,0.3367309979831504,0.9416008894416315,410.1510319763147,15.182163127566184)" fill="#2c2891" filter="url(#bbburst-blur-1)"></use><use xlink:href="#bbburst-shape-6" width="29.592125166804827" opacity="0.1785963657186307" transform="matrix(1.101821490731815,-0.5903299099330144,0.5903299099330144,1.101821490731815,106.56137922894516,-399.34391331683423)" fill="#2c2891" filter="url(#bbburst-blur-3)"></use><use xlink:href="#bbburst-shape-6" width="37.8422076425665" opacity="0.2812667768763777" transform="matrix(1.0588889979809435,-0.664269591321862,0.664269591321862,1.0588889979809435,-179.15555555037986,-147.05974364234152)" fill="#ffa6d5" filter="url(#bbburst-blur-3)"></use><use xlink:href="#bbburst-shape-6" width="27.316729550657783" opacity="0.16738872035751762" transform="matrix(0.9497672418431103,0.8126759417638317,-0.8126759417638317,0.9497672418431103,781.2277927508126,-359.2488221799973)" fill="#ffbd9b" filter="url(#bbburst-blur-3)"></use><use xlink:href="#bbburst-shape-7" width="28.834293318352398" opacity="0.04051130817730819" transform="matrix(1.314534846170278,-1.1552048035755755,1.1552048035755755,1.314534846170278,157.1625989553944,-469.0769657452168)" fill="#00a19d" filter="url(#bbburst-blur-4)"></use><use xlink:href="#bbburst-shape-7" width="25.429624714834027" opacity="0.5198359536913943" transform="matrix(0.9797152472711085,0.2003946961985542,-0.2003946961985542,0.9797152472711085,575.5380600066841,-181.65071649517847)" fill="#ffbd9b" filter="url(#bbburst-blur-2)"></use><use xlink:href="#bbburst-shape-7" width="30.36679100126914" opacity="0.36698897832564004" transform="matrix(0.7747968605292292,-0.6322102695417483,0.6322102695417483,0.7747968605292292,-75.84722180630592,-91.50604441866716)" fill="#ffbd9b" filter="url(#bbburst-blur-2)"></use><use xlink:href="#bbburst-shape-7" width="37.04925956760159" opacity="0.46907751411889764" transform="matrix(0.9252946440420633,-0.37924902334359584,0.37924902334359584,0.9252946440420633,407.2985123753048,-124.33133942851123)" fill="#00a19d" filter="url(#bbburst-blur-2)"></use><use xlink:href="#bbburst-shape-6" width="17.375644256802147" opacity="0.7111608849438127" transform="matrix(0.7135933872905312,-0.700560117060075,0.700560117060075,0.7135933872905312,98.74650481777485,249.77791380549627)" fill="red" filter="url(#bbburst-blur-1)"></use><use xlink:href="#bbburst-shape-7" width="20.9655618847241" opacity="0.7038344782559649" transform="matrix(0.85355154330152,-0.5210084096515076,0.5210084096515076,0.85355154330152,309.5620465151235,104.54615081201177)" fill="#ffa6d5" filter="url(#bbburst-blur-1)"></use><use xlink:href="#bbburst-shape-6" width="29.119001423284118" opacity="0.5947644311381306" transform="matrix(0.7566795837527098,-0.6537859034361522,0.6537859034361522,0.7566795837527098,-47.80039907525912,157.18961634270528)" fill="#00a19d" filter="url(#bbburst-blur-1)"></use><use xlink:href="#bbburst-shape-6" width="19.801623887184938" opacity="0.8003978875361976" transform="matrix(0.7399154236684578,0.6726999076984674,-0.6726999076984674,0.7399154236684578,572.2509188795143,104.92302910333689)" fill="#ffa6d5"></use><use xlink:href="#bbburst-shape-7" width="27.050801504259322" opacity="0.37580203654725464" transform="matrix(0.7110583651241252,-0.703132989829809,0.703132989829809,0.7110583651241252,389.8541447650622,132.22593431298168)" fill="#00a19d" filter="url(#bbburst-blur-2)"></use><use xlink:href="#bbburst-shape-6" width="39.22320682992854" opacity="0.18478401724776983" transform="matrix(1.2418124022325863,-0.14283542159189216,0.14283542159189216,1.2418124022325863,472.067278547903,-427.08624541442805)" fill="#2c2891" filter="url(#bbburst-blur-3)"></use><use xlink:href="#bbburst-shape-7" width="28.12836121484204" opacity="0.6473401710353045" transform="matrix(0.997240965030519,-0.07423245695111648,0.07423245695111648,0.997240965030519,236.2299346823941,106.05256609501646)" fill="#ffa6d5" filter="url(#bbburst-blur-1)"></use><use xlink:href="#bbburst-shape-7" width="28.329435720172846" opacity="0.3398645210555904" transform="matrix(0.7652934279383097,0.6436815743474651,-0.6436815743474651,0.7652934279383097,816.147740848037,-159.20388774547587)" fill="#ff5c58" filter="url(#bbburst-blur-2)"></use><use xlink:href="#bbburst-shape-6" width="34.28289981238562" opacity="0.3622278277563665" transform="matrix(0.9546974735231325,0.2975781141961683,-0.2975781141961683,0.9546974735231325,361.2733541453051,262.7715424525234)" fill="#ffbd9b" filter="url(#bbburst-blur-2)"></use><use xlink:href="#bbburst-shape-6" width="19.05768448231978" opacity="0.6956686468941828" transform="matrix(0.9994907998712192,-0.03190832137218163,0.03190832137218163,0.9994907998712192,241.53835931618892,-14.038968737725156)" fill="#2c2891" filter="url(#bbburst-blur-1)"></use><use xlink:href="#bbburst-shape-7" width="34.6259199692181" opacity="0.294689846095775" transform="matrix(1.237971965164804,0.17298963398421596,-0.17298963398421596,1.237971965164804,273.53682271390414,-363.6138400033083)" fill="#00a19d" filter="url(#bbburst-blur-3)"></use><use xlink:href="#bbburst-shape-6" width="26.320285279244978" opacity="0.6249341324650445" transform="matrix(0.9997969090004242,-0.020152934108898946,0.020152934108898946,0.9997969090004242,229.8712335150339,-79.10349586621658)" fill="#ffa6d5" filter="url(#bbburst-blur-1)"></use><use xlink:href="#bbburst-shape-7" width="28.797548968986987" opacity="0.4725771716676047" transform="matrix(0.9952131755031235,-0.09772786350365585,0.09772786350365585,0.9952131755031235,137.2039460219751,-108.64118646027737)" fill="#00a19d" filter="url(#bbburst-blur-2)"></use><use xlink:href="#bbburst-shape-6" width="17.907658123105232" opacity="0.884487925565822" transform="matrix(0.8803633523202858,-0.47429987127490175,0.47429987127490175,0.8803633523202858,157.81058324043997,78.82189686732238)" fill="#2c2891"></use><use xlink:href="#bbburst-shape-7" width="24.32514512553046" opacity="0.5888972165939423" transform="matrix(0.9997252628757136,0.023439256986629062,-0.023439256986629062,0.9997252628757136,565.5827724873056,-76.6516800255863)" fill="#ff5c58" filter="url(#bbburst-blur-1)"></use><use xlink:href="#bbburst-shape-7" width="31.801107435109607" opacity="0.5009481469282251" transform="matrix(0.7653635965273112,0.6435981394556537,-0.6435981394556537,0.7653635965273112,464.2959320855395,216.62176274409916)" fill="#00a19d" filter="url(#bbburst-blur-2)"></use><use xlink:href="#bbburst-shape-6" width="26.36675913238875" opacity="0.5596120612089889" transform="matrix(0.9301099976602871,0.3672810807166367,-0.3672810807166367,0.9301099976602871,338.1133583799542,-2.309878002586288)" fill="#ff5c58" filter="url(#bbburst-blur-1)"></use><use xlink:href="#bbburst-shape-6" width="14.371938079492416" opacity="0.9542715110619322" transform="matrix(0.7933101204346558,-0.6088177500828569,0.6088177500828569,0.7933101204346558,141.17075569238293,105.25147865717099)" fill="#ffa6d5"></use><use xlink:href="#bbburst-shape-6" width="15.906326791457582" opacity="0.7630158482927462" transform="matrix(0.9417722588014279,0.33625141271384473,-0.33625141271384473,0.9417722588014279,481.4312564358687,-75.79480742197154)" fill="#ffbd9b" filter="url(#bbburst-blur-1)"></use><use xlink:href="#bbburst-shape-6" width="36.08492351739817" opacity="0.45296332850980847" transform="matrix(0.8832325025463708,0.4689353329038826,-0.4689353329038826,0.8832325025463708,475.2100224337096,-188.2474107722219)" fill="#ffbd9b" filter="url(#bbburst-blur-2)"></use><use xlink:href="#bbburst-shape-6" width="40.73484007555259" opacity="0.11457866291038943" transform="matrix(1.2046081859164555,0.33379502456307875,-0.33379502456307875,1.2046081859164555,334.80159137710234,-446.99152267526824)" fill="#00a19d" filter="url(#bbburst-blur-3)"></use><use xlink:href="#bbburst-shape-6" width="17.060011253903713" opacity="0.7669673125965969" transform="matrix(0.8884147893183646,0.4590415690549231,-0.4590415690549231,0.8884147893183646,483.97962701928714,-9.498862892905038)" fill="#00a19d" filter="url(#bbburst-blur-1)"></use><use xlink:href="#bbburst-shape-7" width="35.388136550590936" opacity="0.5653369678823417" transform="matrix(0.8378647001737464,0.5458779572420543,-0.5458779572420543,0.8378647001737464,682.2978925026016,234.1077995871683)" fill="#00a19d" filter="url(#bbburst-blur-1)"></use><use xlink:href="#bbburst-shape-6" width="40.49041276631693" opacity="0.2049554822583326" transform="matrix(0.8995350788586355,0.8679496770566761,-0.8679496770566761,0.8995350788586355,830.5456778310183,365.6618129033815)" fill="#00a19d" filter="url(#bbburst-blur-3)"></use><use xlink:href="#bbburst-shape-6" width="34.35095125149281" opacity="0.4494773964484584" transform="matrix(0.8364087273997184,0.5481062312449875,-0.5481062312449875,0.8364087273997184,361.9181054928829,104.43679544711722)" fill="red" filter="url(#bbburst-blur-2)"></use><use xlink:href="#bbburst-shape-6" width="12.987552811069763" opacity="0.8319758473549983" transform="matrix(0.9868262274238008,-0.16178379668096882,0.16178379668096882,0.9868262274238008,398.1715553349406,-23.936026474997675)" fill="#ff5c58"></use><use xlink:href="#bbburst-shape-6" width="48.51971356758805" opacity="-0.08283999946852338" transform="matrix(1.3578950133848045,1.1039117413202386,-1.1039117413202386,1.3578950133848045,1158.9577528919003,-508.6185820484311)" fill="red" filter="url(#bbburst-blur-4)"></use><use xlink:href="#bbburst-shape-7" width="28.940440547088112" opacity="0.08314727000831512" transform="matrix(1.3502286046010101,1.1132756690583014,-1.1132756690583014,1.3502286046010101,1183.6015886116547,-361.4895460675428)" fill="red" filter="url(#bbburst-blur-4)"></use><use xlink:href="#bbburst-shape-7" width="32.03558806257438" opacity="0.35689016828793707" transform="matrix(0.8899273713046829,-0.45610226243983604,0.45610226243983604,0.8899273713046829,183.1009455353993,-237.32302972841364)" fill="#00a19d" filter="url(#bbburst-blur-2)"></use><use xlink:href="#bbburst-shape-6" width="12.448779992171946" opacity="0.9134277065700619" transform="matrix(0.9999962174006441,-0.002750488030081563,0.002750488030081563,0.9999962174006441,426.86136010915135,-18.663075710899648)" fill="#00a19d"></use><use xlink:href="#bbburst-shape-6" width="36.82945932061318" opacity="0.3252193897042477" transform="matrix(1.0591812498177295,-0.6638034950454481,0.6638034950454481,1.0591812498177295,-114.96565544934947,186.8739368316542)" fill="#ffbd9b" filter="url(#bbburst-blur-3)"></use><use xlink:href="#bbburst-shape-7" width="21.698536970471082" opacity="0.7158364397749368" transform="matrix(0.996894193061137,-0.07875257355150005,0.07875257355150005,0.996894193061137,475.6532883223676,-47.060513181589556)" fill="red" filter="url(#bbburst-blur-1)"></use><use xlink:href="#bbburst-shape-7" width="28.125876278011035" opacity="0.5023985065749152" transform="matrix(0.911356642532573,-0.41161762609460245,0.41161762609460245,0.911356642532573,381.52918779203833,198.85870425213625)" fill="#ffbd9b" filter="url(#bbburst-blur-2)"></use><use xlink:href="#bbburst-shape-7" width="40.46281328606675" opacity="0.15078463178585944" transform="matrix(0.9549431445244259,0.8065876212326851,-0.8065876212326851,0.9549431445244259,339.78757983151036,119.79802483069437)" fill="red" filter="url(#bbburst-blur-3)"></use><use xlink:href="#bbburst-shape-7" width="13.792386883905907" opacity="0.7549540084781323" transform="matrix(0.9634354175659824,-0.2679406579439953,0.2679406579439953,0.9634354175659824,370.3954509925974,-54.64489983773683)" fill="#00a19d" filter="url(#bbburst-blur-1)"></use><use xlink:href="#bbburst-shape-6" width="19.602852337275902" opacity="0.7110304207318753" transform="matrix(0.9968791014912247,0.07894337850667764,-0.07894337850667764,0.9968791014912247,299.12598272259675,43.59024829433804)" fill="#2c2891" filter="url(#bbburst-blur-1)"></use><use xlink:href="#bbburst-shape-6" width="33.71277582317023" opacity="0.07844097077184886" transform="matrix(1.7496951012767576,-0.03266577058813068,0.03266577058813068,1.7496951012767576,562.9894459789527,60.849421034654256)" fill="#ffbd9b" filter="url(#bbburst-blur-4)"></use><use xlink:href="#bbburst-shape-7" width="14.943946498031238" opacity="0.911217502040284" transform="matrix(0.8843124588299262,0.46689557200531495,-0.46689557200531495,0.8843124588299262,580.5391002980259,2.8072565251278547)" fill="#ffbd9b"></use><use xlink:href="#bbburst-shape-6" width="33.663110183402424" opacity="0.3727672134729417" transform="matrix(0.772628170741923,0.6348588108989194,-0.6348588108989194,0.772628170741923,784.6741769245893,323.1787315617691)" fill="#2c2891" filter="url(#bbburst-blur-2)"></use><use xlink:href="#bbburst-shape-6" width="37.159438870622644" opacity="0.4187242572143377" transform="matrix(0.7313902887553465,0.6819591230523798,-0.6819591230523798,0.7313902887553465,708.5751300413363,351.6442677385837)" fill="#00a19d" filter="url(#bbburst-blur-2)"></use><use xlink:href="#bbburst-shape-7" width="14.125707249161216" opacity="0.830015049060722" transform="matrix(0.9985072845239704,0.05461870332191017,-0.05461870332191017,0.9985072845239704,411.75821253115254,-76.23100406214627)" fill="#2c2891"></use><use xlink:href="#bbburst-shape-6" width="51.00109335148956" opacity="-0.07595229172298423" transform="matrix(1.6306335220610961,0.6352435097902416,-0.6352435097902416,1.6306335220610961,274.8397395118286,78.54167611298158)" fill="#ffbd9b" filter="url(#bbburst-blur-4)"></use><use xlink:href="#bbburst-shape-6" width="14.469538833418456" opacity="0.7924858378054896" transform="matrix(0.8067011560261214,-0.5909595966444063,0.5909595966444063,0.8067011560261214,237.7982308800089,129.73198118204436)" fill="#ff5c58"></use><use xlink:href="#bbburst-shape-6" width="23.826456112709735" opacity="0.6852348291492161" transform="matrix(0.8246035084550596,-0.565711104578659,0.565711104578659,0.8246035084550596,68.22973912949257,-27.561501241509575)" fill="#ffbd9b" filter="url(#bbburst-blur-1)"></use><use xlink:href="#bbburst-shape-7" width="18.117214630861795" opacity="0.8669438306060525" transform="matrix(0.9798456689577665,-0.19975601373852833,0.19975601373852833,0.9798456689577665,370.0244905224598,20.81620808675052)" fill="#00a19d"></use><use xlink:href="#bbburst-shape-6" width="20.599767795702718" opacity="0.8079602399679968" transform="matrix(0.8749019634865195,-0.4843000663714933,0.4843000663714933,0.8749019634865195,159.55688811607843,132.78286744835884)" fill="#00a19d"></use><use xlink:href="#bbburst-shape-7" width="18.21082626508204" opacity="0.7760978903677651" transform="matrix(0.7725896053876169,-0.634905742332676,0.634905742332676,0.7725896053876169,239.69864913444394,95.68074514302867)" fill="#2c2891" filter="url(#bbburst-blur-1)"></use><use xlink:href="#bbburst-shape-7" width="16.007213092388763" opacity="0.8157795748587143" transform="matrix(0.7923311079935186,0.6100913171860121,-0.6100913171860121,0.7923311079935186,683.2334853296222,147.38904007175245)" fill="#2c2891"></use><use xlink:href="#bbburst-shape-6" width="16.902140822588855" opacity="0.7477117567920677" transform="matrix(0.7178882768989576,0.6961583310505202,-0.6961583310505202,0.7178882768989576,730.6318540753365,9.505863278090203)" fill="#ffbd9b" filter="url(#bbburst-blur-1)"></use><use xlink:href="#bbburst-shape-7" width="23.907517725981332" opacity="0.3224972341089396" transform="matrix(1.2071639367201419,0.3244306241437904,-0.3244306241437904,1.2071639367201419,579.2568490283963,-384.86077109386184)" fill="#2c2891" filter="url(#bbburst-blur-3)"></use><use xlink:href="#bbburst-shape-7" width="25.919699384009824" opacity="0.6042942611761037" transform="matrix(0.8095489038394443,-0.5870524442435736,0.5870524442435736,0.8095489038394443,309.13491188260366,172.3191575213712)" fill="#2c2891" filter="url(#bbburst-blur-1)"></use><use xlink:href="#bbburst-shape-7" width="28.961940698367705" opacity="0.6268885657640356" transform="matrix(0.8260357267967543,-0.5636177588182951,0.5636177588182951,0.8260357267967543,283.7237508110751,-38.371037078942436)" fill="#00a19d" filter="url(#bbburst-blur-1)"></use><use xlink:href="#bbburst-shape-6" width="38.367257800779385" opacity="0.21156128787476725" transform="matrix(0.950368438361559,0.8119728021099054,-0.8119728021099054,0.950368438361559,710.3903508170057,359.05314320199096)" fill="#ffa6d5" filter="url(#bbburst-blur-3)"></use><use xlink:href="#bbburst-shape-6" width="29.074279736472935" opacity="0.24967105334789863" transform="matrix(1.2035884003987043,-0.33745364485465046,0.33745364485465046,1.2035884003987043,-88.94803319704964,-48.34832040499299)" fill="#2c2891" filter="url(#bbburst-blur-3)"></use><use xlink:href="#bbburst-shape-7" width="35.889675535567434" opacity="-0.07668243634172" transform="matrix(1.5669094943833857,0.7792911114668271,-0.7792911114668271,1.5669094943833857,1020.054848533137,107.57938190054654)" fill="red" filter="url(#bbburst-blur-4)"></use><use xlink:href="#bbburst-shape-7" width="30.779309834638205" opacity="0.5529079195726445" transform="matrix(0.8696581792585678,-0.49365438441147547,0.49365438441147547,0.8696581792585678,387.82873604246504,90.86687494668513)" fill="#2c2891" filter="url(#bbburst-blur-2)"></use><use xlink:href="#bbburst-shape-6" width="27.74554528391792" opacity="0.6112672144399172" transform="matrix(0.7942853164938777,0.6075449250896764,-0.6075449250896764,0.7942853164938777,563.0764241352957,-86.921908688673)" fill="red" filter="url(#bbburst-blur-1)"></use><use xlink:href="#bbburst-shape-6" width="12.489507381599926" opacity="0.8620725181900017" transform="matrix(0.9475188768518873,-0.3196998248503399,0.3196998248503399,0.9475188768518873,206.24441465238561,6.947994767613466)" fill="#2c2891"></use><use xlink:href="#bbburst-shape-6" width="37.846562755266056" opacity="0.22265858445213116" transform="matrix(1.0909913510213514,-0.6101129993670078,0.6101129993670078,1.0909913510213514,470.5542895374535,-124.71955520616342)" fill="#ffa6d5" filter="url(#bbburst-blur-3)"></use></svg>