<svg id="visual" viewBox="0 0 900 600" width="900" height="600" xmlns="http://www.w3.org/2000/svg" xmlns:xlink="http://www.w3.org/1999/xlink" version="1.1"><path d="M0 73L82 73L82 127L164 127L164 91L245 91L245 61L327 61L327 127L409 127L409 91L491 91L491 55L573 55L573 109L655 109L655 169L736 169L736 79L818 79L818 85L900 85L900 139L900 0L900 0L818 0L818 0L736 0L736 0L655 0L655 0L573 0L573 0L491 0L491 0L409 0L409 0L327 0L327 0L245 0L245 0L164 0L164 0L82 0L82 0L0 0Z" fill="#fa7268"></path><path d="M0 247L82 247L82 355L164 355L164 235L245 235L245 361L327 361L327 277L409 277L409 217L491 217L491 241L573 241L573 193L655 193L655 265L736 265L736 343L818 343L818 199L900 199L900 259L900 137L900 83L818 83L818 77L736 77L736 167L655 167L655 107L573 107L573 53L491 53L491 89L409 89L409 125L327 125L327 59L245 59L245 89L164 89L164 125L82 125L82 71L0 71Z" fill="#ea5e66"></path><path d="M0 415L82 415L82 427L164 427L164 469L245 469L245 457L327 457L327 439L409 439L409 475L491 475L491 391L573 391L573 415L655 415L655 499L736 499L736 451L818 451L818 505L900 505L900 511L900 257L900 197L818 197L818 341L736 341L736 263L655 263L655 191L573 191L573 239L491 239L491 215L409 215L409 275L327 275L327 359L245 359L245 233L164 233L164 353L82 353L82 245L0 245Z" fill="#d84a64"></path><path d="M0 481L82 481L82 469L164 469L164 559L245 559L245 529L327 529L327 529L409 529L409 541L491 541L491 481L573 481L573 511L655 511L655 559L736 559L736 511L818 511L818 547L900 547L900 547L900 509L900 503L818 503L818 449L736 449L736 497L655 497L655 413L573 413L573 389L491 389L491 473L409 473L409 437L327 437L327 455L245 455L245 467L164 467L164 425L82 425L82 413L0 413Z" fill="#c53762"></path><path d="M0 601L82 601L82 601L164 601L164 601L245 601L245 601L327 601L327 601L409 601L409 601L491 601L491 601L573 601L573 601L655 601L655 601L736 601L736 601L818 601L818 601L900 601L900 601L900 545L900 545L818 545L818 509L736 509L736 557L655 557L655 509L573 509L573 479L491 479L491 539L409 539L409 527L327 527L327 527L245 527L245 557L164 557L164 467L82 467L82 479L0 479Z" fill="#b0235f"></path></svg>