<svg width="107" height="22" viewBox="0 0 107 22" fill="none" xmlns="http://www.w3.org/2000/svg">
<path d="M1.32 22C1.05333 22 0.92 21.8667 0.92 21.6V1.072C0.92 0.805332 1.05333 0.671999 1.32 0.671999H10.168C10.424 0.671999 10.6373 0.757332 10.808 0.927999L14.008 4.128C14.1893 4.30933 14.28 4.52267 14.28 4.768V10.288C14.28 10.544 14.1893 10.7573 14.008 10.928L10.808 14.128C10.6373 14.3093 10.424 14.4 10.168 14.4H6.248V21.6C6.248 21.8667 6.11467 22 5.848 22H1.32ZM7.448 10.048C8.33333 10.048 8.936 9.872 9.256 9.52C9.58667 9.168 9.752 8.50133 9.752 7.52C9.752 6.53867 9.58667 5.872 9.256 5.52C8.936 5.168 8.33333 4.992 7.448 4.992C6.57333 4.992 5.97067 5.168 5.64 5.52C5.32 5.872 5.16 6.53867 5.16 7.52C5.16 8.50133 5.32 9.168 5.64 9.52C5.97067 9.872 6.57333 10.048 7.448 10.048ZM20.9695 22C20.7242 22 20.5108 21.9093 20.3295 21.728L17.1295 18.528C16.9482 18.3573 16.8575 18.144 16.8575 17.888V4.768C16.8575 4.52267 16.9482 4.30933 17.1295 4.128L20.3295 0.927999C20.5108 0.757332 20.7242 0.671999 20.9695 0.671999H27.2575C27.5135 0.671999 27.7268 0.757332 27.8975 0.927999L31.0975 4.128C31.2788 4.30933 31.3695 4.52267 31.3695 4.768V17.888C31.3695 18.144 31.2788 18.3573 31.0975 18.528L27.8975 21.728C27.7268 21.9093 27.5135 22 27.2575 22H20.9695ZM22.8575 17.728H25.3695C25.8175 17.728 26.0415 17.4293 26.0415 16.832V5.84C26.0415 5.232 25.8175 4.928 25.3695 4.928H22.8575C22.4202 4.928 22.2015 5.232 22.2015 5.84V16.832C22.2015 17.4293 22.4202 17.728 22.8575 17.728ZM35.6013 22C35.3346 22 35.2013 21.8667 35.2013 21.6V4.24C35.2013 3.99467 35.2919 3.78133 35.4733 3.6L38.1293 0.927999C38.3106 0.757332 38.5239 0.671999 38.7693 0.671999H42.4333C42.6786 0.671999 42.8919 0.757332 43.0733 0.927999L45.7613 3.632H46.5133L49.2013 0.927999C49.3826 0.757332 49.5959 0.671999 49.8413 0.671999H53.4893C53.7453 0.671999 53.9586 0.757332 54.1293 0.927999L56.8013 3.6C56.9826 3.78133 57.0733 3.99467 57.0733 4.24V21.6C57.0733 21.8667 56.9399 22 56.6733 22H52.1293C51.8626 22 51.7292 21.8667 51.7292 21.6V4.928H48.8013V21.6C48.8013 21.8667 48.6679 22 48.4013 22H43.8733C43.6066 22 43.4733 21.8667 43.4733 21.6V4.928H40.5293V21.6C40.5293 21.8667 40.3959 22 40.1293 22H35.6013ZM61.32 22C61.0533 22 60.92 21.8667 60.92 21.6V1.072C60.92 0.805332 61.0533 0.671999 61.32 0.671999H65.848C66.1147 0.671999 66.248 0.805332 66.248 1.072V21.6C66.248 21.8667 66.1147 22 65.848 22H61.32ZM70.4763 22C70.2096 22 70.0763 21.8667 70.0763 21.6V1.072C70.0763 0.805332 70.2096 0.671999 70.4763 0.671999H79.5643C79.8203 0.671999 80.0336 0.757332 80.2043 0.927999L83.4043 4.128C83.5856 4.30933 83.6763 4.52267 83.6763 4.768V21.6C83.6763 21.8667 83.5429 22 83.2763 22H78.7483C78.4816 22 78.3483 21.8667 78.3483 21.6V4.928H75.4043V21.6C75.4043 21.8667 75.2709 22 75.0043 22H70.4763ZM87.9138 22C87.6471 22 87.5138 21.8667 87.5138 21.6V1.072C87.5138 0.805332 87.6471 0.671999 87.9138 0.671999H92.4418C92.7084 0.671999 92.8418 0.805332 92.8418 1.072V21.6C92.8418 21.8667 92.7084 22 92.4418 22H87.9138ZM96.59 22C96.3233 22 96.19 21.8667 96.19 21.6V18.592C96.19 18.4533 96.1953 18.3413 96.206 18.256C96.2273 18.1707 96.2913 18.1013 96.398 18.048L100.59 16.128V13.28L96.462 10.72C96.2807 10.6133 96.19 10.4533 96.19 10.24V4.368C96.19 4.19733 96.2007 4.07467 96.222 4C96.2433 3.91467 96.3233 3.824 96.462 3.728L100.67 0.879999C100.777 0.815999 100.873 0.767998 100.958 0.735998C101.054 0.693332 101.171 0.671999 101.31 0.671999H105.63C105.897 0.671999 106.03 0.805332 106.03 1.072V3.792C106.03 4.02667 105.95 4.18667 105.79 4.272L101.598 6V8.96L105.79 11.36C105.95 11.4347 106.03 11.6053 106.03 11.872V18.832C106.03 18.9173 106.014 19.008 105.982 19.104C105.961 19.2 105.907 19.2693 105.822 19.312L100.798 21.808C100.734 21.84 100.654 21.8827 100.558 21.936C100.473 21.9787 100.387 22 100.302 22H96.59Z" fill="url(#paint0_linear_1158_1926)"/>
<defs>
<linearGradient id="paint0_linear_1158_1926" x1="-1" y1="10" x2="108" y2="10" gradientUnits="userSpaceOnUse">
<stop offset="0.0520833" stop-color="#3F5EFB"/>
<stop offset="1" stop-color="#FC466B"/>
</linearGradient>
</defs>
</svg>
